<mxfile host="app.diagrams.net" agent="Mozilla/5.0 (Macintosh; Intel Mac OS X 10_15_7) AppleWebKit/537.36 (KHTML, like Gecko) Chrome/127.0.0.0 Safari/537.36 Edg/127.0.0.0" version="24.7.6">
  <diagram id="prtHgNgQTEPvFCAcTncT" name="Page-1">
    <mxGraphModel dx="3106" dy="2017" grid="1" gridSize="10" guides="1" tooltips="1" connect="1" arrows="1" fold="1" page="1" pageScale="1" pageWidth="827" pageHeight="1169" math="0" shadow="0">
      <root>
        <mxCell id="0" />
        <mxCell id="1" parent="0" />
        <mxCell id="pAWtZwxP5FSCRlnZUNa0-45" style="edgeStyle=orthogonalEdgeStyle;rounded=0;orthogonalLoop=1;jettySize=auto;html=1;exitX=1;exitY=0.5;exitDx=0;exitDy=0;entryX=0;entryY=0.5;entryDx=0;entryDy=0;" edge="1" parent="1" source="pAWtZwxP5FSCRlnZUNa0-26" target="pAWtZwxP5FSCRlnZUNa0-30">
          <mxGeometry relative="1" as="geometry" />
        </mxCell>
        <mxCell id="pAWtZwxP5FSCRlnZUNa0-46" value="1" style="edgeLabel;html=1;align=center;verticalAlign=middle;resizable=0;points=[];" vertex="1" connectable="0" parent="pAWtZwxP5FSCRlnZUNa0-45">
          <mxGeometry x="-0.1675" y="1" relative="1" as="geometry">
            <mxPoint as="offset" />
          </mxGeometry>
        </mxCell>
        <mxCell id="pAWtZwxP5FSCRlnZUNa0-56" value="msg type: try connect" style="edgeLabel;html=1;align=center;verticalAlign=middle;resizable=0;points=[];" vertex="1" connectable="0" parent="pAWtZwxP5FSCRlnZUNa0-45">
          <mxGeometry x="0.0566" y="-1" relative="1" as="geometry">
            <mxPoint x="-4" y="-21" as="offset" />
          </mxGeometry>
        </mxCell>
        <mxCell id="pAWtZwxP5FSCRlnZUNa0-76" style="edgeStyle=orthogonalEdgeStyle;rounded=0;orthogonalLoop=1;jettySize=auto;html=1;exitX=0.5;exitY=0;exitDx=0;exitDy=0;entryX=0;entryY=0.5;entryDx=0;entryDy=0;" edge="1" parent="1" source="pAWtZwxP5FSCRlnZUNa0-26" target="pAWtZwxP5FSCRlnZUNa0-71">
          <mxGeometry relative="1" as="geometry" />
        </mxCell>
        <mxCell id="pAWtZwxP5FSCRlnZUNa0-78" value="sql" style="edgeLabel;html=1;align=center;verticalAlign=middle;resizable=0;points=[];" vertex="1" connectable="0" parent="pAWtZwxP5FSCRlnZUNa0-76">
          <mxGeometry x="-0.4603" y="-2" relative="1" as="geometry">
            <mxPoint as="offset" />
          </mxGeometry>
        </mxCell>
        <mxCell id="pAWtZwxP5FSCRlnZUNa0-82" value="8" style="edgeLabel;html=1;align=center;verticalAlign=middle;resizable=0;points=[];" vertex="1" connectable="0" parent="pAWtZwxP5FSCRlnZUNa0-76">
          <mxGeometry x="-0.6006" y="1" relative="1" as="geometry">
            <mxPoint as="offset" />
          </mxGeometry>
        </mxCell>
        <mxCell id="pAWtZwxP5FSCRlnZUNa0-26" value="client1" style="rounded=0;whiteSpace=wrap;html=1;" vertex="1" parent="1">
          <mxGeometry x="-90" y="600" width="120" height="60" as="geometry" />
        </mxCell>
        <mxCell id="pAWtZwxP5FSCRlnZUNa0-27" value="server" style="rounded=0;whiteSpace=wrap;html=1;" vertex="1" parent="1">
          <mxGeometry x="920" y="830" width="120" height="60" as="geometry" />
        </mxCell>
        <mxCell id="pAWtZwxP5FSCRlnZUNa0-53" style="edgeStyle=orthogonalEdgeStyle;rounded=0;orthogonalLoop=1;jettySize=auto;html=1;exitX=0;exitY=0;exitDx=0;exitDy=0;entryX=1;entryY=0.5;entryDx=0;entryDy=0;" edge="1" parent="1" source="pAWtZwxP5FSCRlnZUNa0-28" target="pAWtZwxP5FSCRlnZUNa0-66">
          <mxGeometry relative="1" as="geometry" />
        </mxCell>
        <mxCell id="pAWtZwxP5FSCRlnZUNa0-54" value="6" style="edgeLabel;html=1;align=center;verticalAlign=middle;resizable=0;points=[];" vertex="1" connectable="0" parent="pAWtZwxP5FSCRlnZUNa0-53">
          <mxGeometry x="0.359" relative="1" as="geometry">
            <mxPoint as="offset" />
          </mxGeometry>
        </mxCell>
        <mxCell id="pAWtZwxP5FSCRlnZUNa0-59" value="&lt;span style=&quot;color: rgba(0, 0, 0, 0); font-family: monospace; font-size: 0px; text-align: start; background-color: rgb(251, 251, 251);&quot;&gt;%3CmxGraphModel%3E%3Croot%3E%3CmxCell%20id%3D%220%22%2F%3E%3CmxCell%20id%3D%221%22%20parent%3D%220%22%2F%3E%3CmxCell%20id%3D%222%22%20value%3D%22msg%20type%3A%20try%20connect%22%20style%3D%22edgeLabel%3Bhtml%3D1%3Balign%3Dcenter%3BverticalAlign%3Dmiddle%3Bresizable%3D0%3Bpoints%3D%5B%5D%3B%22%20vertex%3D%221%22%20connectable%3D%220%22%20parent%3D%221%22%3E%3CmxGeometry%20x%3D%22190%22%20y%3D%22719.9310047562647%22%20as%3D%22geometry%22%2F%3E%3C%2FmxCell%3E%3C%2Froot%3E%3C%2FmxGraphModel%3E&lt;/span&gt;" style="edgeLabel;html=1;align=center;verticalAlign=middle;resizable=0;points=[];" vertex="1" connectable="0" parent="pAWtZwxP5FSCRlnZUNa0-53">
          <mxGeometry x="0.0042" relative="1" as="geometry">
            <mxPoint as="offset" />
          </mxGeometry>
        </mxCell>
        <mxCell id="pAWtZwxP5FSCRlnZUNa0-60" value="msg type: connection result" style="edgeLabel;html=1;align=center;verticalAlign=middle;resizable=0;points=[];" vertex="1" connectable="0" parent="pAWtZwxP5FSCRlnZUNa0-53">
          <mxGeometry x="0.0131" y="-2" relative="1" as="geometry">
            <mxPoint x="-75" y="17" as="offset" />
          </mxGeometry>
        </mxCell>
        <mxCell id="pAWtZwxP5FSCRlnZUNa0-64" style="edgeStyle=orthogonalEdgeStyle;rounded=0;orthogonalLoop=1;jettySize=auto;html=1;exitX=0.5;exitY=0;exitDx=0;exitDy=0;entryX=0.5;entryY=1;entryDx=0;entryDy=0;" edge="1" parent="1" source="pAWtZwxP5FSCRlnZUNa0-28" target="pAWtZwxP5FSCRlnZUNa0-29">
          <mxGeometry relative="1" as="geometry" />
        </mxCell>
        <mxCell id="pAWtZwxP5FSCRlnZUNa0-65" value="Create new worker" style="edgeLabel;html=1;align=center;verticalAlign=middle;resizable=0;points=[];" vertex="1" connectable="0" parent="pAWtZwxP5FSCRlnZUNa0-64">
          <mxGeometry x="0.0614" y="1" relative="1" as="geometry">
            <mxPoint x="1" y="16" as="offset" />
          </mxGeometry>
        </mxCell>
        <mxCell id="pAWtZwxP5FSCRlnZUNa0-69" value="5" style="edgeLabel;html=1;align=center;verticalAlign=middle;resizable=0;points=[];" vertex="1" connectable="0" parent="pAWtZwxP5FSCRlnZUNa0-64">
          <mxGeometry x="-0.233" y="-1" relative="1" as="geometry">
            <mxPoint as="offset" />
          </mxGeometry>
        </mxCell>
        <mxCell id="pAWtZwxP5FSCRlnZUNa0-28" value="connecter" style="rounded=0;whiteSpace=wrap;html=1;" vertex="1" parent="1">
          <mxGeometry x="800" y="780" width="120" height="160" as="geometry" />
        </mxCell>
        <mxCell id="pAWtZwxP5FSCRlnZUNa0-72" style="edgeStyle=orthogonalEdgeStyle;rounded=0;orthogonalLoop=1;jettySize=auto;html=1;exitX=0;exitY=0.25;exitDx=0;exitDy=0;entryX=1;entryY=0.25;entryDx=0;entryDy=0;" edge="1" parent="1" source="pAWtZwxP5FSCRlnZUNa0-29" target="pAWtZwxP5FSCRlnZUNa0-70">
          <mxGeometry relative="1" as="geometry" />
        </mxCell>
        <mxCell id="pAWtZwxP5FSCRlnZUNa0-79" value="execute result" style="edgeLabel;html=1;align=center;verticalAlign=middle;resizable=0;points=[];" vertex="1" connectable="0" parent="pAWtZwxP5FSCRlnZUNa0-72">
          <mxGeometry x="0.0062" relative="1" as="geometry">
            <mxPoint as="offset" />
          </mxGeometry>
        </mxCell>
        <mxCell id="pAWtZwxP5FSCRlnZUNa0-84" value="10" style="edgeLabel;html=1;align=center;verticalAlign=middle;resizable=0;points=[];" vertex="1" connectable="0" parent="pAWtZwxP5FSCRlnZUNa0-72">
          <mxGeometry x="0.3374" y="-1" relative="1" as="geometry">
            <mxPoint as="offset" />
          </mxGeometry>
        </mxCell>
        <mxCell id="pAWtZwxP5FSCRlnZUNa0-29" value="worker1" style="rounded=0;whiteSpace=wrap;html=1;" vertex="1" parent="1">
          <mxGeometry x="800" y="370" width="120" height="60" as="geometry" />
        </mxCell>
        <mxCell id="pAWtZwxP5FSCRlnZUNa0-47" style="edgeStyle=orthogonalEdgeStyle;rounded=0;orthogonalLoop=1;jettySize=auto;html=1;exitX=1;exitY=0.5;exitDx=0;exitDy=0;entryX=0.008;entryY=0.437;entryDx=0;entryDy=0;entryPerimeter=0;" edge="1" parent="1" source="pAWtZwxP5FSCRlnZUNa0-30" target="pAWtZwxP5FSCRlnZUNa0-28">
          <mxGeometry relative="1" as="geometry">
            <mxPoint x="690" y="860" as="targetPoint" />
          </mxGeometry>
        </mxCell>
        <mxCell id="pAWtZwxP5FSCRlnZUNa0-48" value="3" style="edgeLabel;html=1;align=center;verticalAlign=middle;resizable=0;points=[];" vertex="1" connectable="0" parent="pAWtZwxP5FSCRlnZUNa0-47">
          <mxGeometry x="-0.0138" relative="1" as="geometry">
            <mxPoint as="offset" />
          </mxGeometry>
        </mxCell>
        <mxCell id="pAWtZwxP5FSCRlnZUNa0-30" value="public connect message queue 10238" style="rounded=0;whiteSpace=wrap;html=1;" vertex="1" parent="1">
          <mxGeometry x="200" y="820" width="400" height="60" as="geometry" />
        </mxCell>
        <mxCell id="pAWtZwxP5FSCRlnZUNa0-32" value="ip" style="rounded=0;whiteSpace=wrap;html=1;" vertex="1" parent="1">
          <mxGeometry x="-70" y="680" width="40" height="20" as="geometry" />
        </mxCell>
        <mxCell id="pAWtZwxP5FSCRlnZUNa0-33" value="db_name" style="rounded=0;whiteSpace=wrap;html=1;" vertex="1" parent="1">
          <mxGeometry x="-90" y="720" width="60" height="20" as="geometry" />
        </mxCell>
        <mxCell id="pAWtZwxP5FSCRlnZUNa0-34" value="port" style="rounded=0;whiteSpace=wrap;html=1;" vertex="1" parent="1">
          <mxGeometry x="-70" y="700" width="40" height="20" as="geometry" />
        </mxCell>
        <mxCell id="pAWtZwxP5FSCRlnZUNa0-35" value="identity" style="rounded=0;whiteSpace=wrap;html=1;" vertex="1" parent="1">
          <mxGeometry x="-70" y="740" width="40" height="20" as="geometry" />
        </mxCell>
        <mxCell id="pAWtZwxP5FSCRlnZUNa0-51" style="edgeStyle=orthogonalEdgeStyle;rounded=0;orthogonalLoop=1;jettySize=auto;html=1;exitX=1;exitY=0.5;exitDx=0;exitDy=0;entryX=0;entryY=0.25;entryDx=0;entryDy=0;" edge="1" parent="1" source="pAWtZwxP5FSCRlnZUNa0-36" target="pAWtZwxP5FSCRlnZUNa0-28">
          <mxGeometry relative="1" as="geometry" />
        </mxCell>
        <mxCell id="pAWtZwxP5FSCRlnZUNa0-52" value="4" style="edgeLabel;html=1;align=center;verticalAlign=middle;resizable=0;points=[];" vertex="1" connectable="0" parent="pAWtZwxP5FSCRlnZUNa0-51">
          <mxGeometry x="-0.2483" y="-3" relative="1" as="geometry">
            <mxPoint as="offset" />
          </mxGeometry>
        </mxCell>
        <mxCell id="pAWtZwxP5FSCRlnZUNa0-36" value="exclusive connect message queue 110" style="rounded=0;whiteSpace=wrap;html=1;" vertex="1" parent="1">
          <mxGeometry x="200" y="740" width="400" height="60" as="geometry" />
        </mxCell>
        <mxCell id="pAWtZwxP5FSCRlnZUNa0-37" value="exclusive queue id：110" style="rounded=0;whiteSpace=wrap;html=1;" vertex="1" parent="1">
          <mxGeometry x="60" y="635" width="60" height="55" as="geometry" />
        </mxCell>
        <mxCell id="pAWtZwxP5FSCRlnZUNa0-44" value="exclusive connect message queue 120" style="rounded=0;whiteSpace=wrap;html=1;" vertex="1" parent="1">
          <mxGeometry x="200" y="900" width="400" height="60" as="geometry" />
        </mxCell>
        <mxCell id="pAWtZwxP5FSCRlnZUNa0-49" style="edgeStyle=orthogonalEdgeStyle;rounded=0;orthogonalLoop=1;jettySize=auto;html=1;exitX=0.5;exitY=1;exitDx=0;exitDy=0;entryX=0;entryY=0.648;entryDx=0;entryDy=0;entryPerimeter=0;" edge="1" parent="1" source="pAWtZwxP5FSCRlnZUNa0-26" target="pAWtZwxP5FSCRlnZUNa0-36">
          <mxGeometry relative="1" as="geometry" />
        </mxCell>
        <mxCell id="pAWtZwxP5FSCRlnZUNa0-50" value="2" style="edgeLabel;html=1;align=center;verticalAlign=middle;resizable=0;points=[];" vertex="1" connectable="0" parent="pAWtZwxP5FSCRlnZUNa0-49">
          <mxGeometry x="0.3485" y="-1" relative="1" as="geometry">
            <mxPoint as="offset" />
          </mxGeometry>
        </mxCell>
        <mxCell id="pAWtZwxP5FSCRlnZUNa0-57" value="msg type: connect information" style="edgeLabel;html=1;align=center;verticalAlign=middle;resizable=0;points=[];" vertex="1" connectable="0" parent="pAWtZwxP5FSCRlnZUNa0-49">
          <mxGeometry x="0.078" y="-1" relative="1" as="geometry">
            <mxPoint x="-49" y="10" as="offset" />
          </mxGeometry>
        </mxCell>
        <mxCell id="pAWtZwxP5FSCRlnZUNa0-55" value="result" style="rounded=0;whiteSpace=wrap;html=1;" vertex="1" parent="1">
          <mxGeometry x="760" y="680" width="40" height="20" as="geometry" />
        </mxCell>
        <mxCell id="dNxyNK7c78bLwvsdeMH5-21" value="TableDataManagement" style="swimlane;html=1;startSize=20;horizontal=0;" parent="1" vertex="1">
          <mxGeometry x="80" y="-190" width="430" height="150" as="geometry" />
        </mxCell>
        <mxCell id="dNxyNK7c78bLwvsdeMH5-26" value="" style="rounded=0;whiteSpace=wrap;html=1;fontFamily=Helvetica;fontSize=12;fontColor=#000000;align=center;" parent="dNxyNK7c78bLwvsdeMH5-21" vertex="1">
          <mxGeometry x="120" y="30" width="80" height="60" as="geometry" />
        </mxCell>
        <mxCell id="pAWtZwxP5FSCRlnZUNa0-67" style="edgeStyle=orthogonalEdgeStyle;rounded=0;orthogonalLoop=1;jettySize=auto;html=1;exitX=0;exitY=0.5;exitDx=0;exitDy=0;entryX=1;entryY=0.25;entryDx=0;entryDy=0;" edge="1" parent="1" source="pAWtZwxP5FSCRlnZUNa0-66" target="pAWtZwxP5FSCRlnZUNa0-26">
          <mxGeometry relative="1" as="geometry" />
        </mxCell>
        <mxCell id="pAWtZwxP5FSCRlnZUNa0-75" value="7" style="edgeLabel;html=1;align=center;verticalAlign=middle;resizable=0;points=[];" vertex="1" connectable="0" parent="pAWtZwxP5FSCRlnZUNa0-67">
          <mxGeometry x="-0.4752" relative="1" as="geometry">
            <mxPoint as="offset" />
          </mxGeometry>
        </mxCell>
        <mxCell id="pAWtZwxP5FSCRlnZUNa0-77" value="connect success" style="edgeLabel;html=1;align=center;verticalAlign=middle;resizable=0;points=[];" vertex="1" connectable="0" parent="pAWtZwxP5FSCRlnZUNa0-67">
          <mxGeometry x="0.4524" relative="1" as="geometry">
            <mxPoint x="66" y="-45" as="offset" />
          </mxGeometry>
        </mxCell>
        <mxCell id="pAWtZwxP5FSCRlnZUNa0-66" value="exclusive connect message queue 111" style="rounded=0;whiteSpace=wrap;html=1;" vertex="1" parent="1">
          <mxGeometry x="200" y="555" width="400" height="60" as="geometry" />
        </mxCell>
        <mxCell id="pAWtZwxP5FSCRlnZUNa0-80" style="edgeStyle=orthogonalEdgeStyle;rounded=0;orthogonalLoop=1;jettySize=auto;html=1;exitX=0;exitY=0.5;exitDx=0;exitDy=0;entryX=0.25;entryY=0;entryDx=0;entryDy=0;" edge="1" parent="1" source="pAWtZwxP5FSCRlnZUNa0-70" target="pAWtZwxP5FSCRlnZUNa0-26">
          <mxGeometry relative="1" as="geometry" />
        </mxCell>
        <mxCell id="pAWtZwxP5FSCRlnZUNa0-81" value="result" style="edgeLabel;html=1;align=center;verticalAlign=middle;resizable=0;points=[];" vertex="1" connectable="0" parent="pAWtZwxP5FSCRlnZUNa0-80">
          <mxGeometry x="-0.008" relative="1" as="geometry">
            <mxPoint as="offset" />
          </mxGeometry>
        </mxCell>
        <mxCell id="pAWtZwxP5FSCRlnZUNa0-85" value="11" style="edgeLabel;html=1;align=center;verticalAlign=middle;resizable=0;points=[];" vertex="1" connectable="0" parent="pAWtZwxP5FSCRlnZUNa0-80">
          <mxGeometry x="-0.3414" y="3" relative="1" as="geometry">
            <mxPoint as="offset" />
          </mxGeometry>
        </mxCell>
        <mxCell id="pAWtZwxP5FSCRlnZUNa0-70" value="work message queue 111" style="rounded=0;whiteSpace=wrap;html=1;" vertex="1" parent="1">
          <mxGeometry x="213" y="330" width="400" height="60" as="geometry" />
        </mxCell>
        <mxCell id="pAWtZwxP5FSCRlnZUNa0-73" style="edgeStyle=orthogonalEdgeStyle;rounded=0;orthogonalLoop=1;jettySize=auto;html=1;exitX=1;exitY=0.5;exitDx=0;exitDy=0;entryX=0;entryY=0.75;entryDx=0;entryDy=0;" edge="1" parent="1" source="pAWtZwxP5FSCRlnZUNa0-71" target="pAWtZwxP5FSCRlnZUNa0-29">
          <mxGeometry relative="1" as="geometry" />
        </mxCell>
        <mxCell id="pAWtZwxP5FSCRlnZUNa0-74" value="sql" style="edgeLabel;html=1;align=center;verticalAlign=middle;resizable=0;points=[];" vertex="1" connectable="0" parent="pAWtZwxP5FSCRlnZUNa0-73">
          <mxGeometry x="-0.3424" relative="1" as="geometry">
            <mxPoint as="offset" />
          </mxGeometry>
        </mxCell>
        <mxCell id="pAWtZwxP5FSCRlnZUNa0-83" value="9" style="edgeLabel;html=1;align=center;verticalAlign=middle;resizable=0;points=[];" vertex="1" connectable="0" parent="pAWtZwxP5FSCRlnZUNa0-73">
          <mxGeometry x="0.2185" y="-1" relative="1" as="geometry">
            <mxPoint as="offset" />
          </mxGeometry>
        </mxCell>
        <mxCell id="pAWtZwxP5FSCRlnZUNa0-71" value="work message queue 110" style="rounded=0;whiteSpace=wrap;html=1;" vertex="1" parent="1">
          <mxGeometry x="213" y="410" width="400" height="60" as="geometry" />
        </mxCell>
        <mxCell id="pAWtZwxP5FSCRlnZUNa0-87" value="db_name" style="rounded=0;whiteSpace=wrap;html=1;" vertex="1" parent="1">
          <mxGeometry x="-40" y="1230" width="60" height="30" as="geometry" />
        </mxCell>
        <mxCell id="pAWtZwxP5FSCRlnZUNa0-88" value="db_description(not used)" style="rounded=0;whiteSpace=wrap;html=1;" vertex="1" parent="1">
          <mxGeometry x="-40" y="1260" width="150" height="30" as="geometry" />
        </mxCell>
        <mxCell id="pAWtZwxP5FSCRlnZUNa0-133" style="edgeStyle=orthogonalEdgeStyle;rounded=0;orthogonalLoop=1;jettySize=auto;html=1;exitX=1;exitY=0.5;exitDx=0;exitDy=0;entryX=0;entryY=0.5;entryDx=0;entryDy=0;" edge="1" parent="1" source="pAWtZwxP5FSCRlnZUNa0-89" target="pAWtZwxP5FSCRlnZUNa0-91">
          <mxGeometry relative="1" as="geometry" />
        </mxCell>
        <mxCell id="pAWtZwxP5FSCRlnZUNa0-89" value="db_table_header_file_url" style="rounded=0;whiteSpace=wrap;html=1;" vertex="1" parent="1">
          <mxGeometry x="-40" y="1290" width="150" height="30" as="geometry" />
        </mxCell>
        <mxCell id="pAWtZwxP5FSCRlnZUNa0-90" value="base_db.tvdb" style="rounded=1;whiteSpace=wrap;html=1;" vertex="1" parent="1">
          <mxGeometry x="-50" y="1170" width="120" height="60" as="geometry" />
        </mxCell>
        <mxCell id="pAWtZwxP5FSCRlnZUNa0-91" value="default_table.tvdbb" style="rounded=1;whiteSpace=wrap;html=1;" vertex="1" parent="1">
          <mxGeometry x="170" y="1169" width="120" height="60" as="geometry" />
        </mxCell>
        <mxCell id="pAWtZwxP5FSCRlnZUNa0-134" style="edgeStyle=orthogonalEdgeStyle;rounded=0;orthogonalLoop=1;jettySize=auto;html=1;exitX=1;exitY=0.5;exitDx=0;exitDy=0;entryX=-0.007;entryY=0.097;entryDx=0;entryDy=0;entryPerimeter=0;" edge="1" parent="1" source="pAWtZwxP5FSCRlnZUNa0-92" target="pAWtZwxP5FSCRlnZUNa0-93">
          <mxGeometry relative="1" as="geometry" />
        </mxCell>
        <mxCell id="pAWtZwxP5FSCRlnZUNa0-135" value="contains" style="edgeLabel;html=1;align=center;verticalAlign=middle;resizable=0;points=[];" vertex="1" connectable="0" parent="pAWtZwxP5FSCRlnZUNa0-134">
          <mxGeometry x="-0.1908" y="1" relative="1" as="geometry">
            <mxPoint as="offset" />
          </mxGeometry>
        </mxCell>
        <mxCell id="pAWtZwxP5FSCRlnZUNa0-92" value="tables_block_0" style="rounded=0;whiteSpace=wrap;html=1;" vertex="1" parent="1">
          <mxGeometry x="185" y="1229" width="90" height="30" as="geometry" />
        </mxCell>
        <mxCell id="pAWtZwxP5FSCRlnZUNa0-139" style="edgeStyle=orthogonalEdgeStyle;rounded=0;orthogonalLoop=1;jettySize=auto;html=1;exitX=0.5;exitY=1;exitDx=0;exitDy=0;entryX=1;entryY=0.5;entryDx=0;entryDy=0;" edge="1" parent="1" source="pAWtZwxP5FSCRlnZUNa0-93" target="pAWtZwxP5FSCRlnZUNa0-98">
          <mxGeometry relative="1" as="geometry" />
        </mxCell>
        <mxCell id="pAWtZwxP5FSCRlnZUNa0-93" value="default_table" style="swimlane;fontStyle=0;childLayout=stackLayout;horizontal=1;startSize=30;horizontalStack=0;resizeParent=1;resizeParentMax=0;resizeLast=0;collapsible=1;marginBottom=0;whiteSpace=wrap;html=1;" vertex="1" parent="1">
          <mxGeometry x="340" y="1228" width="160" height="150" as="geometry" />
        </mxCell>
        <mxCell id="pAWtZwxP5FSCRlnZUNa0-94" value="&lt;div style=&quot;text-align: left;&quot;&gt;&lt;span style=&quot;text-align: center; background-color: initial;&quot;&gt;columns:&lt;/span&gt;&lt;span style=&quot;background-color: initial; text-align: center;&quot;&gt;[&lt;/span&gt;&lt;span style=&quot;background-color: initial; text-align: center;&quot;&gt;{&lt;/span&gt;&lt;/div&gt;&lt;div style=&quot;text-align: left;&quot;&gt;&lt;span style=&quot;background-color: initial; text-align: center;&quot;&gt;col_name:&lt;/span&gt;&lt;span style=&quot;text-align: center; background-color: initial;&quot;&gt;&amp;nbsp;db_names, &lt;/span&gt;&lt;span style=&quot;text-align: center; background-color: rgb(255, 102, 102);&quot;&gt;col_start_block_address: 0&lt;/span&gt;&lt;/div&gt;&lt;div style=&quot;text-align: left;&quot;&gt;&lt;span style=&quot;background-color: initial; text-align: center;&quot;&gt;col_length:&lt;/span&gt;&lt;span style=&quot;background-color: initial; text-align: center;&quot;&gt;&amp;nbsp;20,&lt;/span&gt;&lt;span style=&quot;background-color: initial; text-align: center;&quot;&gt;&lt;br&gt;&lt;/span&gt;&lt;/div&gt;&lt;div style=&quot;text-align: left;&quot;&gt;&lt;span style=&quot;background-color: initial; text-align: center;&quot;&gt;}&lt;/span&gt;&lt;span style=&quot;background-color: initial; text-align: center;&quot;&gt;]&lt;/span&gt;&lt;/div&gt;" style="text;strokeColor=none;fillColor=none;align=left;verticalAlign=middle;spacingLeft=4;spacingRight=4;overflow=hidden;points=[[0,0.5],[1,0.5]];portConstraint=eastwest;rotatable=0;whiteSpace=wrap;html=1;" vertex="1" parent="pAWtZwxP5FSCRlnZUNa0-93">
          <mxGeometry y="30" width="160" height="120" as="geometry" />
        </mxCell>
        <mxCell id="pAWtZwxP5FSCRlnZUNa0-97" value="default_table.data" style="rounded=1;whiteSpace=wrap;html=1;" vertex="1" parent="1">
          <mxGeometry x="170" y="1360" width="120" height="60" as="geometry" />
        </mxCell>
        <mxCell id="pAWtZwxP5FSCRlnZUNa0-170" style="edgeStyle=orthogonalEdgeStyle;rounded=0;orthogonalLoop=1;jettySize=auto;html=1;exitX=0;exitY=0.5;exitDx=0;exitDy=0;entryX=0;entryY=0.5;entryDx=0;entryDy=0;" edge="1" parent="1" source="pAWtZwxP5FSCRlnZUNa0-98" target="pAWtZwxP5FSCRlnZUNa0-168">
          <mxGeometry relative="1" as="geometry" />
        </mxCell>
        <mxCell id="pAWtZwxP5FSCRlnZUNa0-171" value="struct design" style="edgeLabel;html=1;align=center;verticalAlign=middle;resizable=0;points=[];" vertex="1" connectable="0" parent="pAWtZwxP5FSCRlnZUNa0-170">
          <mxGeometry x="0.0932" y="-2" relative="1" as="geometry">
            <mxPoint as="offset" />
          </mxGeometry>
        </mxCell>
        <mxCell id="pAWtZwxP5FSCRlnZUNa0-182" style="edgeStyle=orthogonalEdgeStyle;rounded=0;orthogonalLoop=1;jettySize=auto;html=1;exitX=0;exitY=0.5;exitDx=0;exitDy=0;entryX=0.5;entryY=0;entryDx=0;entryDy=0;" edge="1" parent="1" source="pAWtZwxP5FSCRlnZUNa0-98" target="pAWtZwxP5FSCRlnZUNa0-177">
          <mxGeometry relative="1" as="geometry">
            <Array as="points">
              <mxPoint x="-90" y="1435" />
              <mxPoint x="-90" y="1000" />
              <mxPoint x="-190" y="1000" />
            </Array>
          </mxGeometry>
        </mxCell>
        <mxCell id="pAWtZwxP5FSCRlnZUNa0-183" value="contains" style="edgeLabel;html=1;align=center;verticalAlign=middle;resizable=0;points=[];" vertex="1" connectable="0" parent="pAWtZwxP5FSCRlnZUNa0-182">
          <mxGeometry x="0.0826" y="2" relative="1" as="geometry">
            <mxPoint as="offset" />
          </mxGeometry>
        </mxCell>
        <mxCell id="pAWtZwxP5FSCRlnZUNa0-98" value="data_block_0" style="rounded=0;whiteSpace=wrap;html=1;" vertex="1" parent="1">
          <mxGeometry x="185" y="1420" width="90" height="30" as="geometry" />
        </mxCell>
        <mxCell id="pAWtZwxP5FSCRlnZUNa0-102" value="" style="rounded=0;whiteSpace=wrap;html=1;" vertex="1" parent="1">
          <mxGeometry x="540" y="1090" width="160" height="250" as="geometry" />
        </mxCell>
        <mxCell id="pAWtZwxP5FSCRlnZUNa0-103" value="table_block" style="rounded=0;whiteSpace=wrap;html=1;" vertex="1" parent="1">
          <mxGeometry x="550" y="1090" width="140" height="20" as="geometry" />
        </mxCell>
        <mxCell id="pAWtZwxP5FSCRlnZUNa0-104" value="" style="rounded=0;whiteSpace=wrap;html=1;" vertex="1" parent="1">
          <mxGeometry x="540" y="1110" width="160" height="230" as="geometry" />
        </mxCell>
        <mxCell id="pAWtZwxP5FSCRlnZUNa0-105" value="int table_amount" style="rounded=0;whiteSpace=wrap;html=1;" vertex="1" parent="1">
          <mxGeometry x="540" y="1110" width="80" height="30" as="geometry" />
        </mxCell>
        <mxCell id="pAWtZwxP5FSCRlnZUNa0-106" value="int free_space" style="rounded=0;whiteSpace=wrap;html=1;" vertex="1" parent="1">
          <mxGeometry x="620" y="1110" width="80" height="30" as="geometry" />
        </mxCell>
        <mxCell id="pAWtZwxP5FSCRlnZUNa0-107" value="size_t next_block_address" style="rounded=0;whiteSpace=wrap;html=1;" vertex="1" parent="1">
          <mxGeometry x="540" y="1140" width="160" height="30" as="geometry" />
        </mxCell>
        <mxCell id="pAWtZwxP5FSCRlnZUNa0-114" style="edgeStyle=orthogonalEdgeStyle;rounded=0;orthogonalLoop=1;jettySize=auto;html=1;exitX=0;exitY=0.5;exitDx=0;exitDy=0;entryX=0;entryY=0.5;entryDx=0;entryDy=0;" edge="1" parent="1" source="pAWtZwxP5FSCRlnZUNa0-108" target="pAWtZwxP5FSCRlnZUNa0-111">
          <mxGeometry relative="1" as="geometry" />
        </mxCell>
        <mxCell id="pAWtZwxP5FSCRlnZUNa0-108" value="int table1_address" style="rounded=0;whiteSpace=wrap;html=1;" vertex="1" parent="1">
          <mxGeometry x="540" y="1170" width="80" height="30" as="geometry" />
        </mxCell>
        <mxCell id="pAWtZwxP5FSCRlnZUNa0-115" style="edgeStyle=orthogonalEdgeStyle;rounded=0;orthogonalLoop=1;jettySize=auto;html=1;exitX=1;exitY=0.5;exitDx=0;exitDy=0;entryX=1;entryY=0.5;entryDx=0;entryDy=0;" edge="1" parent="1" source="pAWtZwxP5FSCRlnZUNa0-109" target="pAWtZwxP5FSCRlnZUNa0-112">
          <mxGeometry relative="1" as="geometry" />
        </mxCell>
        <mxCell id="pAWtZwxP5FSCRlnZUNa0-109" value="int table2_address" style="rounded=0;whiteSpace=wrap;html=1;" vertex="1" parent="1">
          <mxGeometry x="620" y="1170" width="80" height="30" as="geometry" />
        </mxCell>
        <mxCell id="pAWtZwxP5FSCRlnZUNa0-110" value="...&amp;nbsp;&lt;div&gt;more address&lt;/div&gt;" style="rounded=0;whiteSpace=wrap;html=1;" vertex="1" parent="1">
          <mxGeometry x="540" y="1200" width="80" height="30" as="geometry" />
        </mxCell>
        <mxCell id="pAWtZwxP5FSCRlnZUNa0-111" value="table1 header data" style="rounded=0;whiteSpace=wrap;html=1;" vertex="1" parent="1">
          <mxGeometry x="540" y="1340" width="160" height="40" as="geometry" />
        </mxCell>
        <mxCell id="pAWtZwxP5FSCRlnZUNa0-112" value="table2 header data" style="rounded=0;whiteSpace=wrap;html=1;" vertex="1" parent="1">
          <mxGeometry x="540" y="1300" width="160" height="40" as="geometry" />
        </mxCell>
        <mxCell id="pAWtZwxP5FSCRlnZUNa0-116" value="more header data ..." style="rounded=0;whiteSpace=wrap;html=1;" vertex="1" parent="1">
          <mxGeometry x="540" y="1260" width="160" height="40" as="geometry" />
        </mxCell>
        <mxCell id="pAWtZwxP5FSCRlnZUNa0-117" value="" style="rounded=0;whiteSpace=wrap;html=1;" vertex="1" parent="1">
          <mxGeometry x="820" y="1089" width="160" height="290" as="geometry" />
        </mxCell>
        <mxCell id="pAWtZwxP5FSCRlnZUNa0-118" value="table header data" style="rounded=0;whiteSpace=wrap;html=1;" vertex="1" parent="1">
          <mxGeometry x="828.5" y="1089" width="140" height="20" as="geometry" />
        </mxCell>
        <mxCell id="pAWtZwxP5FSCRlnZUNa0-119" value="int db_name_length" style="rounded=0;whiteSpace=wrap;html=1;" vertex="1" parent="1">
          <mxGeometry x="820" y="1109" width="160" height="30" as="geometry" />
        </mxCell>
        <mxCell id="pAWtZwxP5FSCRlnZUNa0-120" value="char[] db_name" style="rounded=0;whiteSpace=wrap;html=1;" vertex="1" parent="1">
          <mxGeometry x="820" y="1138" width="160" height="30" as="geometry" />
        </mxCell>
        <mxCell id="pAWtZwxP5FSCRlnZUNa0-121" value="int column_amout" style="rounded=0;whiteSpace=wrap;html=1;" vertex="1" parent="1">
          <mxGeometry x="820" y="1168" width="160" height="30" as="geometry" />
        </mxCell>
        <mxCell id="pAWtZwxP5FSCRlnZUNa0-127" style="edgeStyle=orthogonalEdgeStyle;rounded=0;orthogonalLoop=1;jettySize=auto;html=1;exitX=1;exitY=0.5;exitDx=0;exitDy=0;entryX=1;entryY=0.5;entryDx=0;entryDy=0;" edge="1" parent="1" source="pAWtZwxP5FSCRlnZUNa0-122" target="pAWtZwxP5FSCRlnZUNa0-124">
          <mxGeometry relative="1" as="geometry" />
        </mxCell>
        <mxCell id="pAWtZwxP5FSCRlnZUNa0-122" value="int column start address1" style="rounded=0;whiteSpace=wrap;html=1;" vertex="1" parent="1">
          <mxGeometry x="820" y="1198" width="160" height="31" as="geometry" />
        </mxCell>
        <mxCell id="pAWtZwxP5FSCRlnZUNa0-129" style="edgeStyle=orthogonalEdgeStyle;rounded=0;orthogonalLoop=1;jettySize=auto;html=1;exitX=0;exitY=0.5;exitDx=0;exitDy=0;entryX=0;entryY=0.5;entryDx=0;entryDy=0;" edge="1" parent="1" source="pAWtZwxP5FSCRlnZUNa0-123" target="pAWtZwxP5FSCRlnZUNa0-125">
          <mxGeometry relative="1" as="geometry" />
        </mxCell>
        <mxCell id="pAWtZwxP5FSCRlnZUNa0-123" value="int column start address2" style="rounded=0;whiteSpace=wrap;html=1;" vertex="1" parent="1">
          <mxGeometry x="820" y="1228" width="160" height="31" as="geometry" />
        </mxCell>
        <mxCell id="pAWtZwxP5FSCRlnZUNa0-124" value="column data1" style="rounded=0;whiteSpace=wrap;html=1;" vertex="1" parent="1">
          <mxGeometry x="820" y="1349" width="160" height="31" as="geometry" />
        </mxCell>
        <mxCell id="pAWtZwxP5FSCRlnZUNa0-125" value="column data2" style="rounded=0;whiteSpace=wrap;html=1;" vertex="1" parent="1">
          <mxGeometry x="820" y="1318" width="160" height="31" as="geometry" />
        </mxCell>
        <mxCell id="pAWtZwxP5FSCRlnZUNa0-130" style="edgeStyle=orthogonalEdgeStyle;rounded=0;orthogonalLoop=1;jettySize=auto;html=1;exitX=1;exitY=0.5;exitDx=0;exitDy=0;entryX=-0.009;entryY=0.024;entryDx=0;entryDy=0;entryPerimeter=0;" edge="1" parent="1" source="pAWtZwxP5FSCRlnZUNa0-111" target="pAWtZwxP5FSCRlnZUNa0-117">
          <mxGeometry relative="1" as="geometry" />
        </mxCell>
        <mxCell id="pAWtZwxP5FSCRlnZUNa0-131" value="designed" style="edgeLabel;html=1;align=center;verticalAlign=middle;resizable=0;points=[];" vertex="1" connectable="0" parent="pAWtZwxP5FSCRlnZUNa0-130">
          <mxGeometry x="0.1551" relative="1" as="geometry">
            <mxPoint as="offset" />
          </mxGeometry>
        </mxCell>
        <mxCell id="pAWtZwxP5FSCRlnZUNa0-132" style="edgeStyle=orthogonalEdgeStyle;rounded=0;orthogonalLoop=1;jettySize=auto;html=1;exitX=0;exitY=0.5;exitDx=0;exitDy=0;entryX=-0.004;entryY=0.043;entryDx=0;entryDy=0;entryPerimeter=0;" edge="1" parent="1" source="pAWtZwxP5FSCRlnZUNa0-92" target="pAWtZwxP5FSCRlnZUNa0-102">
          <mxGeometry relative="1" as="geometry">
            <Array as="points">
              <mxPoint x="150" y="1244" />
              <mxPoint x="150" y="1101" />
            </Array>
          </mxGeometry>
        </mxCell>
        <mxCell id="pAWtZwxP5FSCRlnZUNa0-137" value="struct design" style="edgeLabel;html=1;align=center;verticalAlign=middle;resizable=0;points=[];" vertex="1" connectable="0" parent="pAWtZwxP5FSCRlnZUNa0-132">
          <mxGeometry x="0.0444" y="-2" relative="1" as="geometry">
            <mxPoint x="-1" as="offset" />
          </mxGeometry>
        </mxCell>
        <mxCell id="pAWtZwxP5FSCRlnZUNa0-136" style="edgeStyle=orthogonalEdgeStyle;rounded=0;orthogonalLoop=1;jettySize=auto;html=1;exitX=0;exitY=0.5;exitDx=0;exitDy=0;entryX=1;entryY=0.5;entryDx=0;entryDy=0;" edge="1" parent="1" source="pAWtZwxP5FSCRlnZUNa0-101" target="pAWtZwxP5FSCRlnZUNa0-98">
          <mxGeometry relative="1" as="geometry" />
        </mxCell>
        <mxCell id="pAWtZwxP5FSCRlnZUNa0-153" value="" style="rounded=0;whiteSpace=wrap;html=1;" vertex="1" parent="1">
          <mxGeometry x="400" y="1500" width="160" height="250" as="geometry" />
        </mxCell>
        <mxCell id="pAWtZwxP5FSCRlnZUNa0-154" value="data_block" style="rounded=0;whiteSpace=wrap;html=1;" vertex="1" parent="1">
          <mxGeometry x="410" y="1500" width="140" height="20" as="geometry" />
        </mxCell>
        <mxCell id="pAWtZwxP5FSCRlnZUNa0-155" value="" style="rounded=0;whiteSpace=wrap;html=1;" vertex="1" parent="1">
          <mxGeometry x="400" y="1520" width="160" height="230" as="geometry" />
        </mxCell>
        <mxCell id="pAWtZwxP5FSCRlnZUNa0-156" value="int&amp;nbsp;&lt;div&gt;field_length&lt;/div&gt;" style="rounded=0;whiteSpace=wrap;html=1;" vertex="1" parent="1">
          <mxGeometry x="400" y="1520" width="80" height="30" as="geometry" />
        </mxCell>
        <mxCell id="pAWtZwxP5FSCRlnZUNa0-157" value="int data_amount" style="rounded=0;whiteSpace=wrap;html=1;" vertex="1" parent="1">
          <mxGeometry x="480" y="1520" width="80" height="30" as="geometry" />
        </mxCell>
        <mxCell id="pAWtZwxP5FSCRlnZUNa0-158" value="size_t pre_block_address&lt;div&gt;(not used)&lt;/div&gt;" style="rounded=0;whiteSpace=wrap;html=1;" vertex="1" parent="1">
          <mxGeometry x="400" y="1550" width="160" height="30" as="geometry" />
        </mxCell>
        <mxCell id="pAWtZwxP5FSCRlnZUNa0-164" value="data1" style="rounded=0;whiteSpace=wrap;html=1;" vertex="1" parent="1">
          <mxGeometry x="400" y="1750" width="160" height="40" as="geometry" />
        </mxCell>
        <mxCell id="pAWtZwxP5FSCRlnZUNa0-165" value="data2" style="rounded=0;whiteSpace=wrap;html=1;" vertex="1" parent="1">
          <mxGeometry x="400" y="1710" width="160" height="40" as="geometry" />
        </mxCell>
        <mxCell id="pAWtZwxP5FSCRlnZUNa0-167" value="size_t next_block_address" style="rounded=0;whiteSpace=wrap;html=1;" vertex="1" parent="1">
          <mxGeometry x="400" y="1580" width="160" height="30" as="geometry" />
        </mxCell>
        <mxCell id="pAWtZwxP5FSCRlnZUNa0-168" value="free space" style="rounded=0;whiteSpace=wrap;html=1;" vertex="1" parent="1">
          <mxGeometry x="400" y="1610" width="160" height="100" as="geometry" />
        </mxCell>
        <mxCell id="pAWtZwxP5FSCRlnZUNa0-172" value="not support&amp;nbsp;variable length column" style="shape=callout;whiteSpace=wrap;html=1;perimeter=calloutPerimeter;" vertex="1" parent="1">
          <mxGeometry x="500" y="1420" width="120" height="80" as="geometry" />
        </mxCell>
        <mxCell id="pAWtZwxP5FSCRlnZUNa0-177" value="default_table_data" style="swimlane;fontStyle=0;childLayout=stackLayout;horizontal=1;startSize=30;horizontalStack=0;resizeParent=1;resizeParentMax=0;resizeLast=0;collapsible=1;marginBottom=0;whiteSpace=wrap;html=1;flipV=0;flipH=1;" vertex="1" parent="1">
          <mxGeometry x="-260" y="1020" width="140" height="90" as="geometry" />
        </mxCell>
        <mxCell id="pAWtZwxP5FSCRlnZUNa0-178" value="test_db" style="text;strokeColor=none;fillColor=none;align=left;verticalAlign=middle;spacingLeft=4;spacingRight=4;overflow=hidden;points=[[0,0.5],[1,0.5]];portConstraint=eastwest;rotatable=0;whiteSpace=wrap;html=1;" vertex="1" parent="pAWtZwxP5FSCRlnZUNa0-177">
          <mxGeometry y="30" width="140" height="30" as="geometry" />
        </mxCell>
        <mxCell id="pAWtZwxP5FSCRlnZUNa0-180" value="other_db_names ..." style="text;strokeColor=none;fillColor=none;align=left;verticalAlign=middle;spacingLeft=4;spacingRight=4;overflow=hidden;points=[[0,0.5],[1,0.5]];portConstraint=eastwest;rotatable=0;whiteSpace=wrap;html=1;" vertex="1" parent="pAWtZwxP5FSCRlnZUNa0-177">
          <mxGeometry y="60" width="140" height="30" as="geometry" />
        </mxCell>
        <mxCell id="pAWtZwxP5FSCRlnZUNa0-184" value="test_db.tvdb" style="rounded=1;whiteSpace=wrap;html=1;" vertex="1" parent="1">
          <mxGeometry x="-550" y="1035" width="120" height="60" as="geometry" />
        </mxCell>
        <mxCell id="pAWtZwxP5FSCRlnZUNa0-185" value="db_name" style="rounded=0;whiteSpace=wrap;html=1;" vertex="1" parent="1">
          <mxGeometry x="-540" y="1095" width="60" height="30" as="geometry" />
        </mxCell>
        <mxCell id="pAWtZwxP5FSCRlnZUNa0-186" value="db_description(not used)" style="rounded=0;whiteSpace=wrap;html=1;" vertex="1" parent="1">
          <mxGeometry x="-540" y="1125" width="150" height="30" as="geometry" />
        </mxCell>
        <mxCell id="pAWtZwxP5FSCRlnZUNa0-191" style="edgeStyle=orthogonalEdgeStyle;rounded=0;orthogonalLoop=1;jettySize=auto;html=1;exitX=0;exitY=0.5;exitDx=0;exitDy=0;entryX=1;entryY=0.5;entryDx=0;entryDy=0;" edge="1" parent="1" source="pAWtZwxP5FSCRlnZUNa0-187" target="pAWtZwxP5FSCRlnZUNa0-188">
          <mxGeometry relative="1" as="geometry" />
        </mxCell>
        <mxCell id="pAWtZwxP5FSCRlnZUNa0-187" value="db_table_header_file_url" style="rounded=0;whiteSpace=wrap;html=1;" vertex="1" parent="1">
          <mxGeometry x="-540" y="1155" width="150" height="30" as="geometry" />
        </mxCell>
        <mxCell id="pAWtZwxP5FSCRlnZUNa0-188" value="test_db.tvdbb" style="rounded=1;whiteSpace=wrap;html=1;" vertex="1" parent="1">
          <mxGeometry x="-740" y="1035" width="120" height="60" as="geometry" />
        </mxCell>
        <mxCell id="pAWtZwxP5FSCRlnZUNa0-194" style="edgeStyle=orthogonalEdgeStyle;rounded=0;orthogonalLoop=1;jettySize=auto;html=1;exitX=0.5;exitY=1;exitDx=0;exitDy=0;entryX=0.5;entryY=0;entryDx=0;entryDy=0;" edge="1" parent="1" source="pAWtZwxP5FSCRlnZUNa0-190" target="pAWtZwxP5FSCRlnZUNa0-192">
          <mxGeometry relative="1" as="geometry" />
        </mxCell>
        <mxCell id="pAWtZwxP5FSCRlnZUNa0-195" value="contains" style="edgeLabel;html=1;align=center;verticalAlign=middle;resizable=0;points=[];" vertex="1" connectable="0" parent="pAWtZwxP5FSCRlnZUNa0-194">
          <mxGeometry x="-0.2103" y="3" relative="1" as="geometry">
            <mxPoint as="offset" />
          </mxGeometry>
        </mxCell>
        <mxCell id="pAWtZwxP5FSCRlnZUNa0-237" style="edgeStyle=orthogonalEdgeStyle;rounded=0;orthogonalLoop=1;jettySize=auto;html=1;exitX=0;exitY=1;exitDx=0;exitDy=0;entryX=0;entryY=0.5;entryDx=0;entryDy=0;" edge="1" parent="1" source="pAWtZwxP5FSCRlnZUNa0-190" target="pAWtZwxP5FSCRlnZUNa0-202">
          <mxGeometry relative="1" as="geometry">
            <Array as="points">
              <mxPoint x="-780" y="1125" />
              <mxPoint x="-780" y="1650" />
            </Array>
          </mxGeometry>
        </mxCell>
        <mxCell id="pAWtZwxP5FSCRlnZUNa0-190" value="tables_block_0" style="rounded=0;whiteSpace=wrap;html=1;" vertex="1" parent="1">
          <mxGeometry x="-725" y="1095" width="90" height="30" as="geometry" />
        </mxCell>
        <mxCell id="pAWtZwxP5FSCRlnZUNa0-192" value="default_table" style="swimlane;fontStyle=0;childLayout=stackLayout;horizontal=1;startSize=30;horizontalStack=0;resizeParent=1;resizeParentMax=0;resizeLast=0;collapsible=1;marginBottom=0;whiteSpace=wrap;html=1;" vertex="1" parent="1">
          <mxGeometry x="-760" y="1190" width="160" height="150" as="geometry" />
        </mxCell>
        <mxCell id="pAWtZwxP5FSCRlnZUNa0-193" value="&lt;div style=&quot;text-align: left;&quot;&gt;&lt;span style=&quot;text-align: center; background-color: initial;&quot;&gt;columns:&lt;/span&gt;&lt;span style=&quot;background-color: initial; text-align: center;&quot;&gt;[&lt;/span&gt;&lt;span style=&quot;background-color: initial; text-align: center;&quot;&gt;{&lt;/span&gt;&lt;/div&gt;&lt;div style=&quot;text-align: left;&quot;&gt;&lt;span style=&quot;background-color: initial; text-align: center;&quot;&gt;col_name:&lt;/span&gt;&lt;span style=&quot;text-align: center; background-color: initial;&quot;&gt;&amp;nbsp;table_names, &lt;/span&gt;&lt;span style=&quot;text-align: center; background-color: rgb(255, 102, 102);&quot;&gt;col_start_block_address: 0&lt;/span&gt;&lt;/div&gt;&lt;div style=&quot;text-align: left;&quot;&gt;&lt;span style=&quot;background-color: initial; text-align: center;&quot;&gt;col_length:&lt;/span&gt;&lt;span style=&quot;background-color: initial; text-align: center;&quot;&gt;&amp;nbsp;50,&lt;/span&gt;&lt;span style=&quot;background-color: initial; text-align: center;&quot;&gt;&lt;br&gt;&lt;/span&gt;&lt;/div&gt;&lt;div style=&quot;text-align: left;&quot;&gt;&lt;span style=&quot;background-color: initial; text-align: center;&quot;&gt;}&lt;/span&gt;&lt;span style=&quot;background-color: initial; text-align: center;&quot;&gt;]&lt;/span&gt;&lt;/div&gt;" style="text;strokeColor=none;fillColor=none;align=left;verticalAlign=middle;spacingLeft=4;spacingRight=4;overflow=hidden;points=[[0,0.5],[1,0.5]];portConstraint=eastwest;rotatable=0;whiteSpace=wrap;html=1;" vertex="1" parent="pAWtZwxP5FSCRlnZUNa0-192">
          <mxGeometry y="30" width="160" height="120" as="geometry" />
        </mxCell>
        <mxCell id="pAWtZwxP5FSCRlnZUNa0-196" value="default_table.data" style="rounded=1;whiteSpace=wrap;html=1;" vertex="1" parent="1">
          <mxGeometry x="-510" y="1230" width="120" height="60" as="geometry" />
        </mxCell>
        <mxCell id="pAWtZwxP5FSCRlnZUNa0-197" value="data_block_0" style="rounded=0;whiteSpace=wrap;html=1;" vertex="1" parent="1">
          <mxGeometry x="-495" y="1290" width="90" height="30" as="geometry" />
        </mxCell>
        <mxCell id="pAWtZwxP5FSCRlnZUNa0-199" value="user_table_1" style="swimlane;fontStyle=0;childLayout=stackLayout;horizontal=1;startSize=30;horizontalStack=0;resizeParent=1;resizeParentMax=0;resizeLast=0;collapsible=1;marginBottom=0;whiteSpace=wrap;html=1;" vertex="1" parent="1">
          <mxGeometry x="-535" y="1360" width="160" height="150" as="geometry" />
        </mxCell>
        <mxCell id="pAWtZwxP5FSCRlnZUNa0-200" value="&lt;div style=&quot;text-align: left;&quot;&gt;&lt;span style=&quot;text-align: center; background-color: initial;&quot;&gt;columns:&lt;/span&gt;&lt;span style=&quot;background-color: initial; text-align: center;&quot;&gt;[&lt;/span&gt;&lt;span style=&quot;background-color: initial; text-align: center;&quot;&gt;{&lt;/span&gt;&lt;/div&gt;&lt;div style=&quot;text-align: left;&quot;&gt;&lt;span style=&quot;background-color: initial; text-align: center;&quot;&gt;col_name:&lt;/span&gt;&lt;span style=&quot;text-align: center; background-color: initial;&quot;&gt;&amp;nbsp;column_1, &lt;/span&gt;&lt;span style=&quot;text-align: center; background-color: rgb(255, 102, 102);&quot;&gt;col_start_block_address: 0&lt;/span&gt;&lt;/div&gt;&lt;div style=&quot;text-align: left;&quot;&gt;&lt;span style=&quot;background-color: initial; text-align: center;&quot;&gt;col_length:&lt;/span&gt;&lt;span style=&quot;background-color: initial; text-align: center;&quot;&gt;&amp;nbsp;4,&lt;/span&gt;&lt;span style=&quot;background-color: initial; text-align: center;&quot;&gt;&lt;br&gt;&lt;/span&gt;&lt;/div&gt;&lt;div style=&quot;text-align: left;&quot;&gt;&lt;span style=&quot;background-color: initial; text-align: center;&quot;&gt;}&lt;/span&gt;&lt;span style=&quot;background-color: initial; text-align: center;&quot;&gt;]&lt;/span&gt;&lt;/div&gt;" style="text;strokeColor=none;fillColor=none;align=left;verticalAlign=middle;spacingLeft=4;spacingRight=4;overflow=hidden;points=[[0,0.5],[1,0.5]];portConstraint=eastwest;rotatable=0;whiteSpace=wrap;html=1;" vertex="1" parent="pAWtZwxP5FSCRlnZUNa0-199">
          <mxGeometry y="30" width="160" height="120" as="geometry" />
        </mxCell>
        <mxCell id="pAWtZwxP5FSCRlnZUNa0-218" style="edgeStyle=orthogonalEdgeStyle;rounded=0;orthogonalLoop=1;jettySize=auto;html=1;exitX=1;exitY=0.75;exitDx=0;exitDy=0;entryX=0;entryY=0.5;entryDx=0;entryDy=0;" edge="1" parent="1" source="pAWtZwxP5FSCRlnZUNa0-201" target="pAWtZwxP5FSCRlnZUNa0-215">
          <mxGeometry relative="1" as="geometry">
            <Array as="points">
              <mxPoint x="-450" y="1687" />
              <mxPoint x="-450" y="1680" />
            </Array>
          </mxGeometry>
        </mxCell>
        <mxCell id="pAWtZwxP5FSCRlnZUNa0-201" value="user_table_2" style="swimlane;fontStyle=0;childLayout=stackLayout;horizontal=1;startSize=30;horizontalStack=0;resizeParent=1;resizeParentMax=0;resizeLast=0;collapsible=1;marginBottom=0;whiteSpace=wrap;html=1;" vertex="1" parent="1">
          <mxGeometry x="-760" y="1530" width="160" height="210" as="geometry" />
        </mxCell>
        <mxCell id="pAWtZwxP5FSCRlnZUNa0-202" value="&lt;div style=&quot;text-align: left;&quot;&gt;&lt;span style=&quot;text-align: center; background-color: initial;&quot;&gt;columns:&lt;/span&gt;&lt;span style=&quot;background-color: initial; text-align: center;&quot;&gt;[&lt;/span&gt;&lt;span style=&quot;background-color: initial; text-align: center;&quot;&gt;{&lt;/span&gt;&lt;/div&gt;&lt;div style=&quot;text-align: left;&quot;&gt;&lt;span style=&quot;background-color: initial; text-align: center;&quot;&gt;col_name:&lt;/span&gt;&lt;span style=&quot;text-align: center; background-color: initial;&quot;&gt;&amp;nbsp;person_age, &lt;/span&gt;&lt;span style=&quot;text-align: center; background-color: rgb(255, 102, 102);&quot;&gt;col_start_block_address: 0&lt;/span&gt;&lt;/div&gt;&lt;div style=&quot;text-align: left;&quot;&gt;&lt;span style=&quot;background-color: initial; text-align: center;&quot;&gt;col_length:&lt;/span&gt;&lt;span style=&quot;background-color: initial; text-align: center;&quot;&gt;&amp;nbsp;4,&lt;/span&gt;&lt;span style=&quot;background-color: initial; text-align: center;&quot;&gt;&lt;br&gt;&lt;/span&gt;&lt;/div&gt;&lt;div style=&quot;text-align: left;&quot;&gt;&lt;span style=&quot;background-color: initial; text-align: center;&quot;&gt;},&lt;/span&gt;&lt;/div&gt;&lt;div&gt;&lt;span style=&quot;background-color: initial; text-align: center;&quot;&gt;{&lt;/span&gt;&lt;/div&gt;&lt;div&gt;&lt;span style=&quot;background-color: initial; text-align: center;&quot;&gt;col_name:&lt;/span&gt;&lt;span style=&quot;text-align: center; background-color: initial;&quot;&gt;&amp;nbsp;person_name,&amp;nbsp;&lt;/span&gt;&lt;/div&gt;&lt;div&gt;&lt;span style=&quot;text-align: center; background-color: rgb(255, 102, 102);&quot;&gt;col_start_block_address: 1&lt;/span&gt;&lt;/div&gt;&lt;div&gt;&lt;span style=&quot;background-color: initial; text-align: center;&quot;&gt;col_length:&lt;/span&gt;&lt;span style=&quot;background-color: initial; text-align: center;&quot;&gt;&amp;nbsp;20,&lt;/span&gt;&lt;span style=&quot;background-color: initial; text-align: center;&quot;&gt;&lt;br&gt;&lt;/span&gt;&lt;/div&gt;&lt;div style=&quot;text-align: left;&quot;&gt;&lt;span style=&quot;background-color: initial; text-align: center;&quot;&gt;}&lt;/span&gt;&lt;span style=&quot;background-color: initial; text-align: center;&quot;&gt;]&lt;/span&gt;&lt;/div&gt;" style="text;strokeColor=none;fillColor=none;align=left;verticalAlign=middle;spacingLeft=4;spacingRight=4;overflow=hidden;points=[[0,0.5],[1,0.5]];portConstraint=eastwest;rotatable=0;whiteSpace=wrap;html=1;" vertex="1" parent="pAWtZwxP5FSCRlnZUNa0-201">
          <mxGeometry y="30" width="160" height="180" as="geometry" />
        </mxCell>
        <mxCell id="pAWtZwxP5FSCRlnZUNa0-204" style="edgeStyle=orthogonalEdgeStyle;rounded=0;orthogonalLoop=1;jettySize=auto;html=1;exitX=1;exitY=0.5;exitDx=0;exitDy=0;entryX=0;entryY=0.5;entryDx=0;entryDy=0;" edge="1" parent="1" source="pAWtZwxP5FSCRlnZUNa0-193" target="pAWtZwxP5FSCRlnZUNa0-197">
          <mxGeometry relative="1" as="geometry" />
        </mxCell>
        <mxCell id="pAWtZwxP5FSCRlnZUNa0-205" value="default_table_data" style="swimlane;fontStyle=0;childLayout=stackLayout;horizontal=1;startSize=30;horizontalStack=0;resizeParent=1;resizeParentMax=0;resizeLast=0;collapsible=1;marginBottom=0;whiteSpace=wrap;html=1;flipV=0;flipH=1;" vertex="1" parent="1">
          <mxGeometry x="-290" y="1205" width="140" height="120" as="geometry" />
        </mxCell>
        <mxCell id="pAWtZwxP5FSCRlnZUNa0-206" value="&lt;span style=&quot;text-align: center;&quot;&gt;user_table_1&lt;/span&gt;" style="text;strokeColor=none;fillColor=none;align=left;verticalAlign=middle;spacingLeft=4;spacingRight=4;overflow=hidden;points=[[0,0.5],[1,0.5]];portConstraint=eastwest;rotatable=0;whiteSpace=wrap;html=1;" vertex="1" parent="pAWtZwxP5FSCRlnZUNa0-205">
          <mxGeometry y="30" width="140" height="30" as="geometry" />
        </mxCell>
        <mxCell id="pAWtZwxP5FSCRlnZUNa0-207" value="&lt;span style=&quot;text-align: center;&quot;&gt;user_table_2&lt;/span&gt;" style="text;strokeColor=none;fillColor=none;align=left;verticalAlign=middle;spacingLeft=4;spacingRight=4;overflow=hidden;points=[[0,0.5],[1,0.5]];portConstraint=eastwest;rotatable=0;whiteSpace=wrap;html=1;" vertex="1" parent="pAWtZwxP5FSCRlnZUNa0-205">
          <mxGeometry y="60" width="140" height="30" as="geometry" />
        </mxCell>
        <mxCell id="pAWtZwxP5FSCRlnZUNa0-208" value="other_db_names ..." style="text;strokeColor=none;fillColor=none;align=left;verticalAlign=middle;spacingLeft=4;spacingRight=4;overflow=hidden;points=[[0,0.5],[1,0.5]];portConstraint=eastwest;rotatable=0;whiteSpace=wrap;html=1;" vertex="1" parent="pAWtZwxP5FSCRlnZUNa0-205">
          <mxGeometry y="90" width="140" height="30" as="geometry" />
        </mxCell>
        <mxCell id="pAWtZwxP5FSCRlnZUNa0-209" style="edgeStyle=orthogonalEdgeStyle;rounded=0;orthogonalLoop=1;jettySize=auto;html=1;exitX=1;exitY=0.5;exitDx=0;exitDy=0;entryX=1.003;entryY=0.146;entryDx=0;entryDy=0;entryPerimeter=0;" edge="1" parent="1" source="pAWtZwxP5FSCRlnZUNa0-197" target="pAWtZwxP5FSCRlnZUNa0-205">
          <mxGeometry relative="1" as="geometry" />
        </mxCell>
        <mxCell id="pAWtZwxP5FSCRlnZUNa0-210" value="contains" style="edgeLabel;html=1;align=center;verticalAlign=middle;resizable=0;points=[];" vertex="1" connectable="0" parent="pAWtZwxP5FSCRlnZUNa0-209">
          <mxGeometry x="-0.0423" relative="1" as="geometry">
            <mxPoint as="offset" />
          </mxGeometry>
        </mxCell>
        <mxCell id="pAWtZwxP5FSCRlnZUNa0-211" value="user_table_1.data" style="rounded=1;whiteSpace=wrap;html=1;" vertex="1" parent="1">
          <mxGeometry x="-940" y="1380" width="120" height="60" as="geometry" />
        </mxCell>
        <mxCell id="pAWtZwxP5FSCRlnZUNa0-212" value="data_block_0" style="rounded=0;whiteSpace=wrap;html=1;" vertex="1" parent="1">
          <mxGeometry x="-925" y="1440" width="90" height="30" as="geometry" />
        </mxCell>
        <mxCell id="pAWtZwxP5FSCRlnZUNa0-213" value="user_table_2.data" style="rounded=1;whiteSpace=wrap;html=1;" vertex="1" parent="1">
          <mxGeometry x="-495" y="1580" width="120" height="60" as="geometry" />
        </mxCell>
        <mxCell id="pAWtZwxP5FSCRlnZUNa0-214" value="data_block_0" style="rounded=0;whiteSpace=wrap;html=1;" vertex="1" parent="1">
          <mxGeometry x="-480" y="1640" width="90" height="30" as="geometry" />
        </mxCell>
        <mxCell id="pAWtZwxP5FSCRlnZUNa0-215" value="data_block_1" style="rounded=0;whiteSpace=wrap;html=1;" vertex="1" parent="1">
          <mxGeometry x="-480" y="1670" width="90" height="30" as="geometry" />
        </mxCell>
        <mxCell id="pAWtZwxP5FSCRlnZUNa0-219" style="edgeStyle=orthogonalEdgeStyle;rounded=0;orthogonalLoop=1;jettySize=auto;html=1;exitX=1;exitY=0.5;exitDx=0;exitDy=0;entryX=0;entryY=0.5;entryDx=0;entryDy=0;" edge="1" parent="1" source="pAWtZwxP5FSCRlnZUNa0-202" target="pAWtZwxP5FSCRlnZUNa0-214">
          <mxGeometry relative="1" as="geometry" />
        </mxCell>
        <mxCell id="pAWtZwxP5FSCRlnZUNa0-222" style="edgeStyle=orthogonalEdgeStyle;rounded=0;orthogonalLoop=1;jettySize=auto;html=1;exitX=0;exitY=0.5;exitDx=0;exitDy=0;entryX=1;entryY=0.5;entryDx=0;entryDy=0;" edge="1" parent="1" source="pAWtZwxP5FSCRlnZUNa0-200" target="pAWtZwxP5FSCRlnZUNa0-212">
          <mxGeometry relative="1" as="geometry">
            <Array as="points">
              <mxPoint x="-535" y="1455" />
            </Array>
          </mxGeometry>
        </mxCell>
        <mxCell id="pAWtZwxP5FSCRlnZUNa0-223" style="edgeStyle=orthogonalEdgeStyle;rounded=0;orthogonalLoop=1;jettySize=auto;html=1;exitX=0;exitY=0.5;exitDx=0;exitDy=0;entryX=1;entryY=0.5;entryDx=0;entryDy=0;" edge="1" parent="1" source="pAWtZwxP5FSCRlnZUNa0-178" target="pAWtZwxP5FSCRlnZUNa0-184">
          <mxGeometry relative="1" as="geometry" />
        </mxCell>
        <mxCell id="pAWtZwxP5FSCRlnZUNa0-231" value="system entrance" style="rounded=1;whiteSpace=wrap;html=1;fillColor=#1ba1e2;strokeColor=#006EAF;opacity=70;fontColor=#ffffff;" vertex="1" parent="1">
          <mxGeometry x="-50" y="1140" width="120" height="30" as="geometry" />
        </mxCell>
        <mxCell id="pAWtZwxP5FSCRlnZUNa0-236" style="edgeStyle=orthogonalEdgeStyle;rounded=0;orthogonalLoop=1;jettySize=auto;html=1;exitX=0;exitY=0.5;exitDx=0;exitDy=0;entryX=-0.015;entryY=0.255;entryDx=0;entryDy=0;entryPerimeter=0;" edge="1" parent="1" source="pAWtZwxP5FSCRlnZUNa0-190" target="pAWtZwxP5FSCRlnZUNa0-200">
          <mxGeometry relative="1" as="geometry">
            <Array as="points">
              <mxPoint x="-800" y="1110" />
              <mxPoint x="-800" y="1421" />
            </Array>
          </mxGeometry>
        </mxCell>
        <mxCell id="pAWtZwxP5FSCRlnZUNa0-238" value="contains" style="edgeLabel;html=1;align=center;verticalAlign=middle;resizable=0;points=[];" vertex="1" connectable="0" parent="1">
          <mxGeometry x="-667" y="1160.8823529411761" as="geometry">
            <mxPoint x="-112" y="-12" as="offset" />
          </mxGeometry>
        </mxCell>
        <mxCell id="pAWtZwxP5FSCRlnZUNa0-239" value="contains" style="edgeLabel;html=1;align=center;verticalAlign=middle;resizable=0;points=[];" vertex="1" connectable="0" parent="1">
          <mxGeometry x="-800" y="1185.002352941176" as="geometry" />
        </mxCell>
      </root>
    </mxGraphModel>
  </diagram>
</mxfile>
